# FreeCAD v0.19 build24291 (Git) Arch module
# http://www.freecadweb.org
mtllib stander.mtl
o Cut
usemtl color_cccccc
v 0.0 0.0 0.0
v 0.0 0.0 2.9
v 0.0 -65.0 2.9
v 0.0 -65.0 0.0
v -0.151725 0.0 3.857953
v -0.151725 -65.0 3.857953
v -0.592047 0.0 4.722135
v -0.592047 -65.0 4.722135
v -1.277866 0.0 5.407953
v -1.277866 -65.0 5.407953
v -2.142047 0.0 5.848276
v -2.142047 -65.0 5.848276
v -3.1 0.0 6.0
v -3.1 -65.0 6.0
v -120.0 0.0 0.0
v -120.0 -65.0 0.0
v -124.948418 0.0 4.109203
v -123.128761 0.0 1.266373
v -124.259529 0.0 2.546364
v -121.662804 0.0 0.390018
v -124.788307 0.0 7.480731
v -125.130394 0.0 5.807411
v -93.991882 0.0 9.392119
v -98.057281 0.0 13.331798
v -100.738152 0.0 18.317924
v -88.924026 0.0 6.869149
v -101.782539 0.0 23.881899
v -83.330002 0.0 6.0
v -101.092293 0.0 29.500803
v -98.732277 0.0 34.646568
v -81.242279 0.0 64.940132
v -10.223309 0.0 22.055939
v -19.909204 0.0 15.87564
v -22.326916 0.0 18.02
v -16.942425 0.0 14.594302
v -13.723801 0.0 14.304357
v -10.575788 0.0 15.034851
v -30.157608 0.0 56.583157
v -35.790627 0.0 53.330933
v 4.787503 0.0 23.904852
v 0.168996 0.0 28.055939
v 5.544291 0.0 24.74535
v 5.232458 0.0 24.265169
v 5.662513 0.0 25.870155
v 5.692478 0.0 25.298391
v 5.457329 0.0 26.404678
v 0.221476 0.0 32.70504
v -1.831004 0.0 31.520041
v 1.058265 0.0 32.882904
v 0.625785 0.0 32.860241
v 2.112329 0.0 32.198387
v 1.839787 0.0 32.53495
v 1.476582 0.0 32.770817
v -67.053658 0.0 107.480087
v -53.170601 0.0 69.789085
v -57.704506 0.0 72.828079
v -62.941158 0.0 74.367302
v -68.398384 0.0 74.265038
v -73.573692 0.0 72.530701
v -77.990555 0.0 69.323975
v -49.756916 0.0 65.530151
v -123.128761 -65.0 1.266373
v -124.948418 -65.0 4.109203
v -124.259529 -65.0 2.546364
v -121.662804 -65.0 0.390018
v -124.788307 -65.0 7.480731
v -125.130394 -65.0 5.807411
v -93.991882 -65.0 9.392119
v -98.057281 -65.0 13.331798
v -100.738152 -65.0 18.317924
v -88.924026 -65.0 6.869149
v -101.782539 -65.0 23.881899
v -83.330002 -65.0 6.0
v -101.092293 -65.0 29.500803
v -98.732277 -65.0 34.646568
v -81.242279 -65.0 64.940132
v -19.909204 -65.0 15.87564
v -10.223309 -65.0 22.055939
v -22.326916 -65.0 18.02
v -16.942425 -65.0 14.594302
v -13.723801 -65.0 14.304357
v -10.575788 -65.0 15.034851
v -30.58534 -65.0 57.324013
v -36.218361 -65.0 54.071785
v 4.787503 -65.0 23.904852
v 0.168996 -65.0 28.055939
v 5.232458 -65.0 24.265169
v 5.544291 -65.0 24.74535
v 5.692478 -65.0 25.298391
v 5.662513 -65.0 25.870155
v 5.457329 -65.0 26.404678
v 0.221476 -65.0 32.70504
v -1.831004 -65.0 31.520041
v 2.112329 -65.0 32.198387
v 1.058265 -65.0 32.882904
v 1.839787 -65.0 32.53495
v 1.476582 -65.0 32.770817
v 0.625785 -65.0 32.860241
v -53.170601 -65.0 69.789085
v -67.053658 -65.0 107.480087
v -57.704506 -65.0 72.828079
v -62.941158 -65.0 74.367302
v -68.398384 -65.0 74.265038
v -73.573692 -65.0 72.530701
v -77.990555 -65.0 69.323975
v -49.756916 -65.0 65.530151
v -24.665504 -39.703785 47.070553
v -26.724344 -53.195377 50.63657
v -24.572687 -25.599041 46.90979
v -26.453281 -12.003757 50.167076
v -32.357365 -53.195377 47.384342
v -30.298525 -39.703785 43.818329
v -30.205708 -25.599041 43.657566
v -32.0863 -12.003757 46.914852
vn 1.0 0.0 -0.0
vn 1.0 0.0 0.0
vn 0.9876883625984192 0.0 0.15643446147441864
vn 0.9876883625984192 0.0 0.15643446147441864
vn 0.8910065293312073 0.0 0.45399045944213867
vn 0.8910065293312073 0.0 0.45399045944213867
vn 0.7071066498756409 0.0 0.7071068286895752
vn 0.7071066498756409 0.0 0.7071068286895752
vn 0.45399078726768494 0.0 0.891006350517273
vn 0.45399078726768494 0.0 0.891006350517273
vn 0.15643446147441864 0.0 0.9876883625984192
vn 0.15643446147441864 0.0 0.9876883625984192
vn 0.0 -8.9230770531799e-16 -1.0
vn 0.0 -8.9230770531799e-16 -1.0
vn 0.0 1.0 -2.2000002620903704e-16
vn 1.0282221455045495e-17 1.0 -2.028000428331932e-16
vn -1.0249113908370085e-14 1.0 -1.318273374712126e-15
vn -2.3051933896890003e-15 1.0 -1.6955223676614044e-15
vn -3.865115629253003e-16 1.0 -1.1831378441862933e-15
vn -1.3275185904388964e-18 1.0 -2.2136982406853505e-16
vn 4.215793622163388e-16 1.0 -6.658906104401135e-16
vn -1.6279372506307786e-18 1.0 -2.2087536858557535e-16
vn -1.0561051218237626e-18 1.0 -2.2212142022543543e-16
vn 2.0344942593616164e-16 1.0 -1.818113869633993e-16
vn -3.8196373715237357e-16 1.0 1.5011014129704672e-15
vn 2.5281553842354673e-16 1.0 -2.510568068574712e-16
vn 7.732911058992882e-15 1.0 -8.300460403102942e-15
vn 2.047115348060726e-17 1.0 -9.030971051209968e-16
vn -3.8932146237891845e-16 1.0 -1.0344827149102163e-15
vn 5.571239355403124e-15 1.0 1.071416464256585e-14
vn 7.015948491118952e-15 1.0 3.3548037953998232e-15
vn 2.54835727884616e-15 1.0 1.9031957880868457e-15
vn 2.990033503587732e-15 1.0 2.770034271472083e-15
vn 1.1674099246634386e-15 1.0 -4.4921079456563574e-15
vn -6.29093752205933e-16 1.0 -1.6765891695870211e-15
vn -1.6857207670935737e-16 1.0 -2.0912834774311625e-15
vn -2.9159594135591592e-15 1.0 -8.506068968961215e-16
vn 4.53707216026576e-16 1.0 -4.783622275387805e-16
vn -1.3135552688470215e-16 1.0 -5.971659569899254e-16
vn 4.579457821295263e-17 1.0 -9.126519544033805e-16
vn 5.653307001234054e-17 1.0 -9.998347263236607e-16
vn 7.436729048326471e-14 1.0 -4.8514737013968454e-14
vn 3.266272090475515e-21 1.0 -2.2000076736286588e-16
vn 1.1846512803048e-16 1.0 -8.317984244232213e-16
vn 3.043055309690304e-14 1.0 -8.953898888064589e-15
vn 6.557404494617405e-14 1.0 -7.11210705942305e-15
vn 9.588851368643333e-18 1.0 -8.604894420499742e-16
vn -8.49940303142456e-15 1.0 1.6197393632507578e-13
vn -2.2984336961929966e-16 1.0 -8.577867716735225e-16
vn 6.688477215729865e-17 1.0 -9.969898602911888e-16
vn 1.3701611719248892e-21 1.0 -2.1999917917608978e-16
vn 1.7581988247033706e-14 1.0 3.927007712609988e-14
vn 2.2138351265035827e-14 1.0 8.262140971382337e-14
vn -1.139194516036569e-15 1.0 -1.919574864187902e-15
vn -4.4446619245115e-16 1.0 -1.7321364255976556e-15
vn 2.7238463655691388e-17 1.0 -1.6735523447128776e-15
vn 4.934354435329668e-16 1.0 -1.69242646223919e-15
vn 1.1591800466687974e-15 1.0 -1.8166252092291935e-15
vn 2.4631992544829964e-14 1.0 -8.544768422013606e-15
vn -1.316175274101777e-15 1.0 1.0988977970736725e-16
vn 0.0 1.0 -8.333332481236461e-16
vn 1.6705681417605823e-15 1.0 3.5507520563737784e-16
vn -2.651742181684815e-14 1.0 -1.1267358472285844e-14
vn 1.1867034293777602e-15 1.0 -1.9887798911983018e-16
vn 0.0 1.0 -8.333332481236461e-16
vn 0.0 -1.0 0.0
vn 0.0 -1.0 0.0
vn 0.0 -1.0 0.0
vn 0.0 -1.0 0.0
vn 0.0 -1.0 0.0
vn 0.0 -1.0 0.0
vn 0.0 -1.0 0.0
vn -0.0 -1.0 0.0
vn 0.0 -1.0 0.0
vn -0.0 -1.0 0.0
vn 0.0 -1.0 0.0
vn -0.0 -1.0 0.0
vn -0.0 -1.0 0.0
vn -0.0 -1.0 0.0
vn -0.0 -1.0 -0.0
vn -0.0 -1.0 -0.0
vn 0.0 -1.0 0.0
vn 0.0 -1.0 0.0
vn 0.0 -1.0 0.0
vn 0.0 -1.0 0.0
vn 0.0 -1.0 0.0
vn 0.0 -1.0 0.0
vn -0.0 -1.0 0.0
vn 0.0 -1.0 0.0
vn -0.0 -1.0 0.0
vn 0.0 -1.0 0.0
vn 0.0 -1.0 0.0
vn -0.0 -1.0 0.0
vn -0.0 -1.0 0.0
vn 0.0 -1.0 0.0
vn -0.0 -1.0 0.0
vn -0.0 -1.0 0.0
vn 0.0 -1.0 0.0
vn 0.0 -1.0 0.0
vn 0.0 -1.0 0.0
vn 0.0 -1.0 0.0
vn 0.0 -1.0 0.0
vn 0.0 -1.0 0.0
vn 0.0 -1.0 0.0
vn 0.0 -1.0 0.0
vn 0.0 -1.0 0.0
vn -0.0 -1.0 0.0
vn -0.0 -1.0 0.0
vn -0.0 -1.0 0.0
vn -0.0 -1.0 0.0
vn -0.0 -1.0 0.0
vn 0.0 -1.0 0.0
vn 0.0 -1.0 0.0
vn 0.0 -1.0 0.0
vn 0.0 -1.0 0.0
vn -0.0 -1.0 -0.0
vn 0.0 0.0 1.0
vn 0.0 0.0 1.0
vn -0.9797359704971313 0.0 0.20029324293136597
vn -0.9797359704971313 0.0 0.20029324293136597
vn -0.9943076372146606 0.0 -0.10654790699481964
vn -0.9943076372146606 -0.0 -0.10654790699481964
vn -0.9150474071502686 0.0 -0.40334638953208923
vn -0.7494415640830994 0.0 -0.6620704531669617
vn -0.9150474071502686 -0.0 -0.40334638953208923
vn -0.7494415640830994 0.0 -0.6620704531669617
vn -0.5131086707115173 0.0 -0.8583236932754517
vn -0.5131086707115173 -0.0 -0.8583236932754517
vn -0.22835713624954224 0.0 -0.9735774993896484
vn -0.22835713624954224 -0.0 -0.9735774993896484
vn 0.9089617729187012 0.0 -0.4168795347213745
vn 0.99253910779953 0.0 -0.12192710489034653
vn 0.9089617729187012 0.0 -0.4168795347213745
vn 0.9828356504440308 0.0 0.18448352813720703
vn 0.99253910779953 0.0 -0.12192710489034653
vn 0.8807634711265564 0.0 0.4735564589500427
vn 0.9828356504440308 0.0 0.18448352813720703
vn 0.8807634711265564 0.0 0.4735564589500427
vn 0.695915699005127 0.0 0.7181234359741211
vn 0.4456644356250763 0.0 0.8952001333236694
vn 0.695915699005127 0.0 0.7181234359741211
vn 0.4456644356250763 0.0 0.8952001333236694
vn 0.1535288691520691 0.0 0.9881442785263062
vn 0.1535288691520691 0.0 0.9881442785263062
vn 0.8660253882408142 0.0 -0.5
vn 0.8660253882408142 0.0 -0.5
vn -0.7802841663360596 0.0 -0.6254251003265381
vn -0.7802841663360596 -0.0 -0.6254251003265381
vn -0.5567774772644043 -0.0 -0.8306617736816406
vn -0.5567774772644043 0.0 -0.8306617736816406
vn -0.28200289607048035 -0.0 -0.9594135880470276
vn -0.28200289607048035 0.0 -0.9594135880470276
vn 0.0187359768897295 0.0 -0.9998244643211365
vn 0.0187359768897295 0.0 -0.9998244643211365
vn 0.3177499771118164 0.0 -0.9481744766235352
vn 0.587507963180542 0.0 -0.8092184066772461
vn 0.3177499771118164 0.0 -0.9481744766235352
vn 0.587507963180542 0.0 -0.8092184066772461
vn 0.803168535232544 0.0 -0.5957518815994263
vn 0.803168535232544 0.0 -0.5957518815994263
vn -0.8660253286361694 0.0 -0.5
vn -0.8660253286361694 0.0 -0.5
vn -0.6635482907295227 -0.0 -0.7481335401535034
vn -0.6635482907295227 0.0 -0.7481335401535034
vn -0.3964955806732178 0.0 -0.9180366396903992
vn -0.3964955806732178 -0.0 -0.9180366396903992
vn -0.08972040563821793 0.0 -0.9959670305252075
vn -0.08972040563821793 -0.0 -0.9959670305252075
vn 0.22604331374168396 0.0 -0.9741172194480896
vn 0.22604331374168396 0.0 -0.9741172194480896
vn 0.5000000596046448 0.0 -0.866025447845459
vn 0.5000000596046448 0.0 -0.866025447845459
vn 0.6293202638626099 0.0 -0.77714604139328
vn 0.6293202638626099 0.0 -0.77714604139328
vn 0.8386702537536621 0.0 -0.5446394681930542
vn 0.965925931930542 0.0 -0.25881850719451904
vn 0.8386702537536621 0.0 -0.5446394681930542
vn 0.965925931930542 0.0 -0.25881850719451904
vn 0.9986295700073242 0.0 0.052336033433675766
vn 0.933580756187439 -0.0 0.3583669364452362
vn 0.9986295700073242 0.0 0.052336033433675766
vn 0.933580756187439 0.0 0.3583669364452362
vn 0.8660253286361694 0.0 0.5000000596046448
vn 0.8660253286361694 0.0 0.5000000596046448
vn 0.7771477699279785 0.0 0.6293182373046875
vn 0.7771477699279785 0.0 0.6293182373046875
vn 0.5446357131004333 0.0 0.8386726975440979
vn 0.2588181793689728 -0.0 0.9659260511398315
vn 0.5446357131004333 0.0 0.8386726975440979
vn 0.2588181793689728 0.0 0.9659260511398315
vn -0.052330903708934784 0.0 0.9986297488212585
vn -0.052330903708934784 0.0 0.9986297488212585
vn -0.35837066173553467 0.0 0.9335793852806091
vn -0.35837066173553467 0.0 0.9335793852806091
vn -0.4999997913837433 0.0 0.866025447845459
vn -0.4999997913837433 0.0 0.866025447845459
vn -0.866025447845459 -0.0 -0.5
vn -0.866025447845459 0.0 -0.5
vn -0.5 0.0 0.8660253882408142
vn -0.5 0.0 0.8660253882408142
vn 0.866025447845459 1.2358843548554432e-07 0.5
vn 0.866025447845459 1.2696291662450676e-07 0.5000000596046448
vn 0.8660253286361694 -5.2068742206756724e-08 0.5000000596046448
vn 0.8660253882408142 1.2753572775636712e-07 0.5
vn 0.866025447845459 -6.273521080402134e-08 0.5
vn 0.8660253882408142 0.0 0.5
vn -0.4184267818927765 0.5474274158477783 0.7247359752655029
vn -0.4782230257987976 0.2919105589389801 0.8283060193061829
vn -0.4184267818927765 0.5474274158477783 0.7247359752655029
vn -0.49995651841163635 0.013159899972379208 0.8659505248069763
vn -0.47822266817092896 0.2919103503227234 0.8283063769340515
vn -0.48189815878868103 -0.2666381895542145 0.8346725702285767
vn -0.49995651841163635 0.013159915804862976 0.8659505248069763
vn -0.4254850149154663 -0.5252140760421753 0.736961841583252
vn -0.4818982779979706 -0.2666381299495697 0.8346724510192871
vn -0.4254850149154663 -0.5252140164375305 0.736961841583252
vn 0.866025447845459 2.3380330560485163e-07 0.5
vn 0.8660253882408142 0.0 0.5
vn 0.8660253882408142 0.0 0.5
vn 0.8660253882408142 0.0 0.5
vn 0.866025447845459 -2.75054276244191e-07 0.4999999403953552
vn 0.8660253286361694 -0.0 0.5
vn -0.866025447845459 0.0 0.4999999403953552
vn -0.866025447845459 0.0 0.4999999403953552
f 1//1 2//1 3//1 
f 1//2 3//2 4//2 
f 2//3 5//3 3//3 
f 3//4 5//4 6//4 
f 6//5 7//5 8//5 
f 5//6 7//6 6//6 
f 8//7 9//7 10//7 
f 7//8 9//8 8//8 
f 10//9 11//9 12//9 
f 9//10 11//10 10//10 
f 12//11 13//11 14//11 
f 11//12 13//12 12//12 
f 15//13 1//13 4//13 
f 15//14 4//14 16//14 
f 17//15 18//15 19//15 
f 15//16 20//16 18//16 
f 21//17 17//17 22//17 
f 21//18 18//18 17//18 
f 21//19 15//19 18//19 
f 23//20 15//20 24//20 
f 25//21 15//21 21//21 
f 25//22 24//22 15//22 
f 26//23 15//23 23//23 
f 27//24 25//24 21//24 
f 28//25 15//25 26//25 
f 29//26 27//26 21//26 
f 30//27 29//27 21//27 
f 31//28 30//28 21//28 
f 13//29 2//29 1//29 
f 9//30 13//30 11//30 
f 7//31 5//31 2//31 
f 7//32 2//32 13//32 
f 7//33 13//33 9//33 
f 32//34 33//34 34//34 
f 32//35 35//35 33//35 
f 32//36 36//36 35//36 
f 32//37 37//37 36//37 
f 38//38 34//38 39//38 
f 38//39 32//39 34//39 
f 40//40 32//40 41//40 
f 40//41 37//41 32//41 
f 42//42 43//42 40//42 
f 44//43 45//43 42//43 
f 46//44 40//44 41//44 
f 46//45 42//45 40//45 
f 46//46 44//46 42//46 
f 47//47 41//47 48//47 
f 49//48 47//48 50//48 
f 51//49 41//49 47//49 
f 51//50 46//50 41//50 
f 52//51 49//51 53//51 
f 52//52 47//52 49//52 
f 52//53 51//53 47//53 
f 54//54 55//54 56//54 
f 54//55 56//55 57//55 
f 54//56 57//56 58//56 
f 54//57 58//57 59//57 
f 54//58 59//58 60//58 
f 54//59 60//59 31//59 
f 54//60 31//60 21//60 
f 1//61 15//61 28//61 
f 54//62 39//62 61//62 
f 54//63 61//63 55//63 
f 34//64 61//64 39//64 
f 28//65 13//65 1//65 
f 62//66 63//66 64//66 
f 65//67 16//67 62//67 
f 63//68 66//68 67//68 
f 62//69 66//69 63//69 
f 16//70 66//70 62//70 
f 16//71 68//71 69//71 
f 16//72 70//72 66//72 
f 69//73 70//73 16//73 
f 16//74 71//74 68//74 
f 70//75 72//75 66//75 
f 16//76 73//76 71//76 
f 72//77 74//77 66//77 
f 74//78 75//78 66//78 
f 75//79 76//79 66//79 
f 3//80 14//80 4//80 
f 6//81 8//81 3//81 
f 12//82 8//82 10//82 
f 14//83 8//83 12//83 
f 3//84 8//84 14//84 
f 77//85 78//85 79//85 
f 80//86 78//86 77//86 
f 81//87 78//87 80//87 
f 82//88 78//88 81//88 
f 79//89 83//89 84//89 
f 78//90 83//90 79//90 
f 78//91 85//91 86//91 
f 82//92 85//92 78//92 
f 87//93 88//93 85//93 
f 89//94 90//94 88//94 
f 85//95 91//95 86//95 
f 88//96 91//96 85//96 
f 90//97 91//97 88//97 
f 86//98 92//98 93//98 
f 86//99 94//99 92//99 
f 91//100 94//100 86//100 
f 95//101 96//101 97//101 
f 98//102 96//102 95//102 
f 92//103 96//103 98//103 
f 94//104 96//104 92//104 
f 99//105 100//105 101//105 
f 101//106 100//106 102//106 
f 102//107 100//107 103//107 
f 103//108 100//108 104//108 
f 104//109 100//109 105//109 
f 105//110 100//110 76//110 
f 76//111 100//111 66//111 
f 16//112 4//112 73//112 
f 84//113 100//113 106//113 
f 106//114 100//114 99//114 
f 106//115 79//115 84//115 
f 14//116 73//116 4//116 
f 13//117 28//117 73//117 
f 13//118 73//118 14//118 
f 21//119 22//119 66//119 
f 66//120 22//120 67//120 
f 67//121 17//121 63//121 
f 22//122 17//122 67//122 
f 63//123 19//123 64//123 
f 64//124 19//124 62//124 
f 17//125 19//125 63//125 
f 19//126 18//126 62//126 
f 62//127 20//127 65//127 
f 18//128 20//128 62//128 
f 65//129 15//129 16//129 
f 20//130 15//130 65//130 
f 30//131 75//131 74//131 
f 29//132 74//132 72//132 
f 29//133 30//133 74//133 
f 27//134 72//134 70//134 
f 27//135 29//135 72//135 
f 25//136 70//136 69//136 
f 25//137 27//137 70//137 
f 24//138 25//138 69//138 
f 23//139 69//139 68//139 
f 23//140 68//140 71//140 
f 23//141 24//141 69//141 
f 26//142 23//142 71//142 
f 28//143 71//143 73//143 
f 28//144 26//144 71//144 
f 30//145 31//145 75//145 
f 75//146 31//146 76//146 
f 55//147 61//147 106//147 
f 55//148 106//148 99//148 
f 56//149 99//149 101//149 
f 56//150 55//150 99//150 
f 57//151 101//151 102//151 
f 57//152 56//152 101//152 
f 58//153 102//153 103//153 
f 58//154 57//154 102//154 
f 59//155 103//155 104//155 
f 59//156 104//156 105//156 
f 59//157 58//157 103//157 
f 60//158 59//158 105//158 
f 31//159 105//159 76//159 
f 31//160 60//160 105//160 
f 106//161 61//161 79//161 
f 61//162 34//162 79//162 
f 34//163 33//163 79//163 
f 79//164 33//164 77//164 
f 77//165 35//165 80//165 
f 33//166 35//166 77//166 
f 80//167 36//167 81//167 
f 35//168 36//168 80//168 
f 81//169 37//169 82//169 
f 36//170 37//170 81//170 
f 37//171 40//171 82//171 
f 82//172 40//172 85//172 
f 85//173 40//173 87//173 
f 40//174 43//174 87//174 
f 87//175 42//175 88//175 
f 88//176 42//176 89//176 
f 43//177 42//177 87//177 
f 42//178 45//178 89//178 
f 89//179 44//179 90//179 
f 90//180 44//180 91//180 
f 45//181 44//181 89//181 
f 44//182 46//182 91//182 
f 46//183 51//183 91//183 
f 91//184 51//184 94//184 
f 51//185 52//185 94//185 
f 94//186 52//186 96//186 
f 96//187 53//187 97//187 
f 97//188 53//188 95//188 
f 52//189 53//189 96//189 
f 53//190 49//190 95//190 
f 95//191 50//191 98//191 
f 49//192 50//192 95//192 
f 98//193 47//193 92//193 
f 50//194 47//194 98//194 
f 47//195 48//195 92//195 
f 92//196 48//196 93//196 
f 48//197 41//197 93//197 
f 93//198 41//198 86//198 
f 41//199 32//199 86//199 
f 86//200 32//200 78//200 
f 78//201 107//201 108//201 
f 78//202 108//202 83//202 
f 109//203 107//203 78//203 
f 32//204 38//204 110//204 
f 32//205 110//205 109//205 
f 32//206 109//206 78//206 
f 84//207 83//207 108//207 
f 111//208 108//208 107//208 
f 111//209 84//209 108//209 
f 112//210 107//210 109//210 
f 112//211 111//211 107//211 
f 113//212 109//212 110//212 
f 113//213 112//213 109//213 
f 114//214 110//214 38//214 
f 114//215 113//215 110//215 
f 39//216 114//216 38//216 
f 54//217 112//217 113//217 
f 54//218 113//218 114//218 
f 54//219 114//219 39//219 
f 100//220 84//220 111//220 
f 100//221 111//221 112//221 
f 100//222 112//222 54//222 
f 100//223 21//223 66//223 
f 54//224 21//224 100//224 
